<?xml version="1.0" encoding="utf-8"?>
<!-- Generator: Adobe Illustrator 24.0.0, SVG Export Plug-In . SVG Version: 6.00 Build 0)  -->
<svg version="1.1" id="Layer_1" xmlns="http://www.w3.org/2000/svg" xmlns:xlink="http://www.w3.org/1999/xlink" x="0px" y="0px"
	 viewBox="0 0 583 126.52" style="enable-background:new 0 0 583 126.52;" xml:space="preserve">
<g>
	<g>
		<path d="M46.25,66.37c0-2.46-0.41-4.45-1.23-5.99c-0.82-1.53-1.94-2.74-3.38-3.61c-1.43-0.87-3.2-1.46-5.3-1.77
			c-2.1-0.31-4.43-0.46-6.98-0.46c-5.53,0-11.41,1.07-17.65,3.22c-1.43-2.66-2.51-5.17-3.22-7.52c-0.72-2.35-1.07-5.17-1.07-8.44
			c4.5-1.53,9-2.66,13.51-3.38c4.5-0.71,8.7-1.07,12.59-1.07c10.64,0,18.96,2.56,24.94,7.67c5.99,5.12,8.98,13.3,8.98,24.56v46.05
			c-3.58,1.13-7.93,2.2-13.05,3.22c-5.12,1.02-10.9,1.54-17.34,1.54c-5.22,0-10-0.46-14.35-1.38c-4.35-0.92-8.08-2.46-11.2-4.6
			c-3.12-2.15-5.53-4.91-7.21-8.29c-1.69-3.38-2.53-7.52-2.53-12.43c0-4.91,1.05-9.03,3.15-12.36c2.1-3.32,4.81-5.99,8.13-7.98
			c3.32-2,7.03-3.43,11.13-4.3c4.09-0.87,8.19-1.3,12.28-1.3c2.97,0,6.24,0.15,9.82,0.46V66.37z M46.25,82.18
			c-1.23-0.2-2.56-0.38-3.99-0.54c-1.43-0.15-2.71-0.23-3.84-0.23c-5.01,0-8.98,0.9-11.89,2.69c-2.92,1.79-4.38,4.68-4.38,8.67
			c0,2.66,0.56,4.71,1.69,6.14c1.12,1.43,2.48,2.48,4.07,3.15c1.58,0.67,3.27,1.07,5.07,1.23c1.79,0.15,3.35,0.23,4.68,0.23
			c1.54,0,3.07-0.13,4.6-0.38c1.54-0.25,2.86-0.48,3.99-0.69V82.18z"/>
		<path d="M86.77,39.2c1.54-0.31,2.99-0.54,4.37-0.69c1.38-0.15,2.89-0.23,4.53-0.23c1.53,0,3.04,0.1,4.53,0.31
			c1.48,0.21,2.94,0.46,4.37,0.77c0.31,0.51,0.59,1.25,0.84,2.23c0.25,0.97,0.48,2,0.69,3.07c0.2,1.07,0.38,2.15,0.54,3.22
			c0.15,1.07,0.28,1.97,0.38,2.69c2.25-3.17,5.01-6.01,8.29-8.52c3.27-2.51,7.37-3.76,12.28-3.76c1.02,0,2.2,0.05,3.53,0.15
			c1.33,0.1,2.3,0.26,2.92,0.46c0.2,1.02,0.36,2.2,0.46,3.53c0.1,1.33,0.15,2.71,0.15,4.14c0,1.74-0.08,3.63-0.23,5.68
			c-0.15,2.05-0.44,3.99-0.84,5.83c-1.13-0.2-2.38-0.31-3.76-0.31c-1.38,0-2.23,0-2.53,0c-1.74,0-3.68,0.18-5.83,0.54
			c-2.15,0.36-4.2,1.3-6.14,2.84c-1.95,1.53-3.56,3.84-4.83,6.91c-1.28,3.07-1.92,7.37-1.92,12.89v37.76
			c-1.84,0.31-3.68,0.51-5.53,0.61c-1.84,0.1-3.63,0.15-5.37,0.15c-1.74,0-3.51-0.05-5.29-0.15c-1.79-0.1-3.66-0.31-5.6-0.61V39.2z"
			/>
		<path d="M150.62,55.78h-9.98l-0.77-3.07l28.7-36.68h3.53V39.2h18.57c0.31,1.54,0.51,2.92,0.61,4.14c0.1,1.23,0.15,2.51,0.15,3.84
			c0,1.43-0.05,2.82-0.15,4.14c-0.1,1.33-0.31,2.82-0.61,4.45h-18.57v31.16c0,3.17,0.25,5.73,0.77,7.67
			c0.51,1.94,1.25,3.48,2.23,4.6c0.97,1.13,2.17,1.89,3.61,2.3c1.43,0.41,3.12,0.61,5.06,0.61c1.54,0,3.04-0.13,4.53-0.38
			c1.48-0.25,2.79-0.48,3.91-0.69c0.71,1.94,1.23,3.97,1.53,6.06c0.31,2.1,0.46,3.97,0.46,5.6c0,1.13-0.03,2.07-0.08,2.84
			c-0.05,0.77-0.13,1.51-0.23,2.23c-4.71,1.12-9.57,1.69-14.58,1.69c-9.31,0-16.42-2.17-21.33-6.52
			c-4.91-4.35-7.37-11.43-7.37-21.26V55.78z"/>
		<path d="M243.17,55.78h-9.98l-0.77-3.07l28.7-36.68h3.53V39.2h18.57c0.31,1.54,0.51,2.92,0.61,4.14c0.1,1.23,0.15,2.51,0.15,3.84
			c0,1.43-0.05,2.82-0.15,4.14c-0.1,1.33-0.31,2.82-0.61,4.45h-18.57v31.16c0,3.17,0.25,5.73,0.77,7.67
			c0.51,1.94,1.25,3.48,2.23,4.6c0.97,1.13,2.17,1.89,3.61,2.3c1.43,0.41,3.12,0.61,5.07,0.61c1.54,0,3.04-0.13,4.53-0.38
			c1.48-0.25,2.79-0.48,3.91-0.69c0.71,1.94,1.23,3.97,1.54,6.06c0.31,2.1,0.46,3.97,0.46,5.6c0,1.13-0.03,2.07-0.08,2.84
			c-0.05,0.77-0.13,1.51-0.23,2.23c-4.71,1.12-9.57,1.69-14.58,1.69c-9.31,0-16.42-2.17-21.33-6.52
			c-4.91-4.35-7.37-11.43-7.37-21.26V55.78z"/>
		<path d="M304.1,55.78h-10.28c-0.31-1.33-0.54-2.74-0.69-4.22c-0.15-1.48-0.23-2.89-0.23-4.22c0-2.76,0.31-5.47,0.92-8.13h31.62
			v79.35c-3.68,0.61-7.27,0.92-10.74,0.92c-3.38,0-6.91-0.31-10.59-0.92V55.78z M302.64,24.21c-0.52-2.93-0.77-5.81-0.77-8.65
			c0-2.75,0.26-5.64,0.77-8.65c1.46-0.26,3.04-0.45,4.71-0.58s3.21-0.19,4.58-0.19c1.46,0,3.05,0.06,4.78,0.19
			c1.72,0.13,3.31,0.32,4.78,0.58c0.26,1.46,0.43,2.91,0.52,4.33c0.08,1.42,0.13,2.86,0.13,4.33c0,1.38-0.04,2.8-0.13,4.26
			c-0.09,1.46-0.26,2.93-0.52,4.39c-1.46,0.26-3.03,0.43-4.71,0.52c-1.68,0.09-3.25,0.13-4.71,0.13c-1.38,0-2.93-0.04-4.65-0.13
			C305.69,24.64,304.1,24.46,302.64,24.21z"/>
		<path d="M346.92,39.2c1.43-0.31,2.86-0.54,4.3-0.69c1.43-0.15,3.02-0.23,4.76-0.23c1.74,0,3.27,0.08,4.6,0.23
			c1.33,0.15,2.71,0.38,4.14,0.69c0.31,0.51,0.59,1.25,0.84,2.23c0.25,0.97,0.48,2,0.69,3.07c0.2,1.07,0.38,2.12,0.54,3.15
			c0.15,1.02,0.28,1.89,0.38,2.61c0.82-1.53,1.89-3.07,3.22-4.6c1.33-1.53,2.92-2.92,4.76-4.14c1.84-1.23,3.91-2.23,6.22-2.99
			c2.3-0.77,4.89-1.15,7.75-1.15c12.38,0,20.31,4.71,23.79,14.12c2.05-3.78,4.94-7.08,8.67-9.9c3.73-2.81,8.47-4.22,14.2-4.22
			c9,0,15.63,2.48,19.88,7.44c4.25,4.96,6.37,12.71,6.37,23.25v50.5c-3.68,0.61-7.32,0.92-10.9,0.92c-3.58,0-7.21-0.31-10.9-0.92
			V73.74c0-5.53-0.69-9.77-2.07-12.74c-1.38-2.97-4.17-4.45-8.36-4.45c-1.74,0-3.45,0.26-5.14,0.77c-1.69,0.51-3.22,1.46-4.6,2.84
			c-1.38,1.38-2.51,3.33-3.38,5.83c-0.87,2.51-1.3,5.76-1.3,9.75v42.82c-3.68,0.61-7.32,0.92-10.9,0.92c-3.58,0-7.21-0.31-10.9-0.92
			V73.74c0-5.53-0.69-9.77-2.07-12.74c-1.38-2.97-4.17-4.45-8.36-4.45c-1.74,0-3.48,0.26-5.22,0.77c-1.74,0.51-3.3,1.51-4.68,2.99
			c-1.38,1.48-2.48,3.56-3.3,6.22c-0.82,2.66-1.23,6.14-1.23,10.44v41.59c-3.68,0.61-7.32,0.92-10.9,0.92
			c-3.58,0-7.21-0.31-10.9-0.92V39.2z"/>
		<path d="M499.17,85.55c0.41,6.14,2.56,10.59,6.45,13.35c3.89,2.76,9,4.14,15.35,4.14c3.48,0,7.03-0.33,10.67-1
			c3.63-0.66,7.08-1.61,10.36-2.84c1.12,2.05,2.1,4.5,2.92,7.37c0.82,2.87,1.28,5.94,1.38,9.21c-7.98,3.07-16.99,4.6-27.01,4.6
			c-7.37,0-13.69-1.02-18.96-3.07c-5.27-2.04-9.57-4.88-12.89-8.52c-3.33-3.63-5.78-7.96-7.37-12.97
			c-1.59-5.01-2.38-10.49-2.38-16.42c0-5.83,0.82-11.3,2.46-16.42c1.64-5.12,4.07-9.57,7.29-13.35c3.22-3.78,7.21-6.78,11.97-8.98
			c4.76-2.2,10.31-3.3,16.65-3.3c5.53,0,10.44,0.97,14.73,2.92c4.3,1.94,7.96,4.6,10.97,7.98c3.02,3.38,5.29,7.39,6.83,12.05
			c1.54,4.66,2.3,9.65,2.3,14.96c0,1.94-0.08,3.86-0.23,5.75c-0.15,1.89-0.33,3.4-0.54,4.53H499.17z M530.33,70.36
			c-0.21-4.91-1.56-8.88-4.07-11.9c-2.51-3.02-6.01-4.53-10.51-4.53c-5.12,0-9,1.43-11.67,4.3c-2.66,2.87-4.25,6.91-4.76,12.13
			H530.33z"/>
	</g>
	<g>
		<path d="M569.06,27.01c-6.73,0-12.2,5.47-12.2,12.2s5.47,12.2,12.2,12.2c6.73,0,12.2-5.47,12.2-12.2S575.78,27.01,569.06,27.01z
			 M569.06,48.9c-5.35,0-9.7-4.35-9.7-9.7s4.35-9.7,9.7-9.7c5.35,0,9.7,4.35,9.7,9.7S574.41,48.9,569.06,48.9z"/>
		<path d="M573.47,44.49l-2.54-4.42c1.27-0.44,2.12-1.42,2.12-3.02c0-2.36-1.7-3.14-3.9-3.14h-3.57v10.58h1.88v-4.14h1.61l2.28,4.14
			H573.47z M567.47,35.41h1.49c1.45,0,2.24,0.42,2.24,1.64c0,1.2-0.79,1.81-2.24,1.81h-1.49V35.41z"/>
	</g>
</g>
</svg>
