<?xml version="1.0" encoding="utf-8"?>
<!-- Generator: Adobe Illustrator 24.0.0, SVG Export Plug-In . SVG Version: 6.00 Build 0)  -->
<svg version="1.1" id="Layer_1" xmlns="http://www.w3.org/2000/svg" xmlns:xlink="http://www.w3.org/1999/xlink" x="0px" y="0px"
	 viewBox="0 0 107 42" style="enable-background:new 0 0 107 42;" xml:space="preserve">
<style type="text/css">
	.st0{fill-rule:evenodd;clip-rule:evenodd;fill:#FFFFFF;}
	.st1{fill:#FFFFFF;}
</style>
<title>Logo_original</title>
<desc>Created with Sketch.</desc>
<g id="Page-1">
	<g id="Home" transform="translate(-1169.000000, -17.000000)">
		<g id="Logo_original" transform="translate(1169.000000, 17.000000)">
			<g id="Group">
				<path id="Path" class="st0" d="M9.8,10c-0.4,0.2-1,0.3-1.8,0.5l0.5,1.9c1.2-0.3,2-0.6,2.6-0.8s1-0.6,1.2-0.9s0.3-0.6,0.3-0.9
					c0-0.3-0.1-0.6-0.2-0.8c-0.1-0.3-0.3-0.5-0.5-0.7c-0.2-0.2-0.4-0.4-0.5-0.5c-0.1-0.2-0.2-0.3-0.2-0.4c0-0.2,0.1-0.3,0.4-0.5
					c0.3-0.2,0.7-0.4,1.3-0.7l-0.8-1.7c-1.2,0.5-1.9,1-2.3,1.4C9.2,6.3,8.9,6.7,8.9,7.2C8.9,7.5,9,7.8,9.2,8
					c0.1,0.2,0.3,0.4,0.5,0.6C9.8,8.8,10,9,10.1,9.1c0.1,0.1,0.2,0.3,0.2,0.4C10.3,9.7,10.1,9.8,9.8,10z"/>
				<path id="Path_1_" class="st0" d="M21.4,17.1c1.3,0,2.3-0.1,3.3-0.4c0.9-0.3,1.6-0.7,2.1-1.3c0.5-0.7,0.7-1.6,0.7-2.8
					c0-0.6,0-1.2-0.2-1.8c-0.1-0.7-0.3-1.3-0.4-1.9c-0.2-0.7-0.4-1.2-0.5-1.7l-2.6,0.8c0.2,0.5,0.4,1.1,0.6,1.7
					c0.2,0.6,0.4,1.1,0.4,1.7c0.1,0.5,0.2,1,0.2,1.4c0,0.5-0.1,0.9-0.3,1.1s-0.5,0.4-1,0.5c-0.5,0.1-1.2,0.1-2,0.1
					c-0.5,0-0.9-0.1-1.2-0.3c-0.3-0.2-0.6-0.5-0.8-0.9c-0.2-0.4-0.3-1.1-0.4-1.9L18.7,1.2h-2.6l0.5,10.2c0,0.7,0,1.3-0.2,1.8
					c-0.2,0.4-0.5,0.8-1,1.1s-1.2,0.4-2.1,0.5c-0.9,0.1-2,0.1-3.5,0.1c-1.6,0-2.9-0.1-3.8-0.3c-0.9-0.3-1.6-0.5-2-1s-0.6-1-0.6-1.6
					c0-0.4,0-0.8,0.1-1.2c0.1-0.5,0.2-0.9,0.3-1.3L1.7,9c-0.2,0.6-0.3,1.2-0.5,1.8s-0.3,1.3-0.3,2c0,1.5,0.7,2.7,2,3.5
					c1.3,0.8,3.5,1.3,6.4,1.3c2.2,0,4-0.1,5.4-0.4c1.5-0.2,2.6-0.8,3.4-1.7C18.6,16.6,19.7,17.1,21.4,17.1L21.4,17.1
					C21.3,17.1,21.3,17.1,21.4,17.1L21.4,17.1L21.4,17.1z"/>
				<path id="Path_2_" class="st0" d="M26.9,5.3c0.4,0,0.7-0.1,1-0.4c0.3-0.3,0.4-0.6,0.4-1c0-0.3-0.1-0.7-0.4-1
					c-0.3-0.3-0.6-0.4-1-0.4s-0.7,0.1-1,0.4c-0.3,0.3-0.4,0.6-0.4,1s0.1,0.7,0.4,1C26.2,5.2,26.5,5.3,26.9,5.3z"/>
				<path id="Path_3_" class="st0" d="M23.4,5.3c0.4,0,0.7-0.1,0.9-0.4c0.3-0.3,0.4-0.6,0.4-1s-0.1-0.7-0.4-1s-0.6-0.4-0.9-0.4
					c-0.4,0-0.7,0.1-1,0.4c-0.3,0.3-0.4,0.6-0.4,1s0.1,0.7,0.4,1C22.7,5.2,23,5.3,23.4,5.3z"/>
				<path id="Path_4_" class="st0" d="M30.6,18.2c-0.8,0.6-1.9,1.1-3.2,1.5l0.9,2.4c1.4-0.4,2.6-1,3.6-1.8c1.1-0.7,1.9-1.6,2.5-2.6
					c0.6-1,0.9-2.2,0.9-3.5c0-1.5-0.5-3.2-1.6-5.2l-2.4,1.2c0.5,0.9,0.9,1.7,1.1,2.4c0.2,0.7,0.4,1.3,0.4,1.9c0,0.7-0.2,1.3-0.5,1.9
					C32,17,31.4,17.6,30.6,18.2z"/>
				<path id="Path_5_" class="st0" d="M50,5.3c0.4,0,0.7-0.1,1-0.4c0.3-0.3,0.4-0.6,0.4-1S51.2,3.2,51,3c-0.3-0.3-0.6-0.4-1-0.4
					S49.3,2.7,49,3c-0.3,0.3-0.4,0.6-0.4,1s0.1,0.7,0.4,1C49.3,5.2,49.6,5.3,50,5.3z"/>
				<path id="Shape" class="st1" d="M53.9,10.9c-0.1-0.7-0.3-1.3-0.4-1.9c-0.2-0.7-0.4-1.2-0.5-1.7l-2.6,0.8
					c0.2,0.5,0.4,1.1,0.6,1.7c0.2,0.6,0.4,1.1,0.4,1.7c0.1,0.5,0.2,1,0.2,1.4c0,0.5-0.1,0.9-0.3,1.1c-0.2,0.3-0.5,0.4-1,0.5
					c-0.5,0.1-1.2,0.1-2,0.1h-1.9v-0.1c0-1.1-0.2-2.1-0.5-3s-0.8-1.5-1.5-2C43.7,9,43,8.8,42.2,8.8c-0.6,0-1.2,0.2-1.7,0.4
					c-0.5,0.3-1,0.7-1.3,1.2c-0.4,0.5-0.7,1.1-0.9,1.7C38.1,12.8,38,13.4,38,14c0,1.1,0.4,1.9,1.2,2.4c0.8,0.5,1.8,0.7,3,0.7h1
					c-0.4,0.7-1.2,1.3-2.1,1.6c-0.9,0.3-2.1,0.6-3.5,0.7l0.5,2.6c2.1-0.2,3.8-0.7,5.1-1.5c1.3-0.8,2.3-2,2.7-3.5h2
					c1.3,0,2.3-0.1,3.3-0.4c0.9-0.3,1.6-0.7,2.1-1.3c0.5-0.7,0.7-1.6,0.7-2.8C54.1,12.1,54,11.5,53.9,10.9z M43.7,14.6
					c-0.9,0.1-1.6,0-2,0c-0.4-0.1-0.8-0.2-0.9-0.4c-0.2-0.2-0.2-0.4-0.2-0.6c0-0.3,0-0.6,0.2-1c0.1-0.4,0.3-0.6,0.5-0.8
					c0.2-0.2,0.5-0.4,0.8-0.4c0.5,0,0.9,0.3,1.2,0.8c0.3,0.6,0.4,1.3,0.4,2.2V14.6L43.7,14.6z"/>
				<path id="Path_6_" class="st0" d="M53.5,5.3c0.4,0,0.7-0.1,1-0.4c0.3-0.3,0.4-0.6,0.4-1c0-0.3-0.1-0.7-0.4-1
					c-0.3-0.3-0.6-0.4-1-0.4s-0.7,0.1-1,0.4c-0.3,0.3-0.4,0.6-0.4,1s0.1,0.7,0.4,1C52.8,5.2,53.1,5.3,53.5,5.3z"/>
				<path id="Path_7_" class="st0" d="M67.7,2.9c0.4,0,0.7-0.1,1-0.4c0.3-0.3,0.4-0.6,0.4-1c0-0.4-0.1-0.7-0.4-1
					c-0.3-0.3-0.6-0.4-1-0.4c-0.4,0-0.8,0.1-1,0.4c-0.3,0.3-0.4,0.6-0.4,1s0.1,0.7,0.4,1C67,2.8,67.3,2.9,67.7,2.9z"/>
				<path id="Shape_1_" class="st1" d="M65.8,17c1-0.1,1.9-0.3,2.5-0.5s1.2-0.5,1.7-0.9c0.6-0.4,1.1-1,1.4-1.8
					C71.8,13,72,12.1,72,11c0-1.1-0.1-2.1-0.4-3c-0.3-0.9-0.8-1.7-1.3-2.2C69.6,5.3,68.8,5,67.9,5c-0.6,0-1.2,0.1-1.7,0.4
					c-0.5,0.3-1,0.7-1.3,1.2c-0.4,0.5-0.7,1.1-0.9,1.7s-0.3,1.2-0.3,1.8c0,1.1,0.3,1.9,1,2.4c0.7,0.5,1.5,0.7,2.7,0.7
					c0.7,0,1.2-0.1,1.8-0.3c-0.1,0.3-0.2,0.5-0.4,0.7c-0.2,0.2-0.4,0.3-0.6,0.4c-0.3,0.1-0.6,0.2-1,0.3c-0.4,0.1-1,0.1-1.8,0.1
					c-0.8,0-1.7,0-2.9,0l0,0l0,0c-0.7,0-1.2,0-1.6-0.2s-0.6-0.4-0.7-0.7c-0.1-0.4-0.2-0.9-0.2-1.6L59.4,1.2h-2.6l0.4,12.1
					c0,0.9,0.2,1.7,0.4,2.2c0.3,0.6,0.8,1,1.5,1.3c0.7,0.3,1.7,0.4,3,0.4c0,0,0,0,0,0l0,0C63.6,17.1,64.9,17.1,65.8,17z M67.8,10.8
					c-0.6,0-1-0.1-1.3-0.3c-0.3-0.2-0.4-0.5-0.4-0.9c0-0.5,0.1-1,0.4-1.4c0.3-0.4,0.7-0.6,1.1-0.6c0.5,0,0.9,0.3,1.2,0.8
					c0.3,0.5,0.4,1.3,0.5,2.1C68.9,10.7,68.4,10.8,67.8,10.8z"/>
				<polygon id="Path_8_" class="st0" points="0.1,41.3 2.9,41.3 2.9,34.8 8.3,34.8 8.3,32.7 2.9,32.7 2.9,27.9 9.8,27.9 9.8,25.7 
					0.1,25.7 				"/>
				<path id="Shape_2_" class="st1" d="M16.3,29.7c-2.6,0-4.7,1.1-5,3.8H14c0.1-1.1,0.8-1.8,2.2-1.8c1.6,0,2.1,0.8,2.1,2.3v0.6h-1.4
					c-3.3,0-5.9,1-5.9,3.6c0,2.4,1.8,3.4,3.9,3.4c1.8,0,2.8-0.7,3.5-1.6v1.4h2.7v-7.6C20.9,30.7,18.9,29.7,16.3,29.7z M18.3,37.3
					c0,1.5-1.2,2.3-2.9,2.3c-1.3,0-1.9-0.7-1.9-1.6c0-1.4,1.3-1.8,3.4-1.8h1.4V37.3z"/>
				<path id="Path_9_" class="st0" d="M27.1,37.9v-6h2.5v-2h-2.5v-2.5h-2.7v2.5h-1.5v2h1.5v6.3c0,2.2,1.2,3.4,3.5,3.4
					c0.8,0,1.4-0.2,1.8-0.3v-2.1c-0.4,0.2-0.8,0.3-1.3,0.3C27.6,39.4,27.1,38.9,27.1,37.9z"/>
				<path id="Shape_3_" class="st1" d="M37.3,29.7c-3.4,0-6,2.4-6,5.9v0.2c0,3.5,2.6,5.8,5.9,5.8s6-2.3,6-5.9v-0.2
					C43.2,32,40.7,29.7,37.3,29.7z M40.5,35.7c0,2.3-1.2,3.8-3.2,3.8c-2,0-3.2-1.5-3.2-3.8v-0.2c0-2.4,1.2-3.8,3.2-3.8
					s3.2,1.4,3.2,3.8V35.7z"/>
				<path id="Path_10_" class="st0" d="M48.3,32v-2.1h-2.7v11.5h2.7v-6c0-2.5,1.4-3.2,3.8-3.2v-2.5C50.1,29.8,49.1,30.6,48.3,32z"/>
				<path id="Path_11_" class="st0" d="M57.6,37.9v-6h2.5v-2h-2.5v-2.5H55v2.5h-1.5v2H55v6.3c0,2.2,1.2,3.4,3.5,3.4
					c0.8,0,1.4-0.2,1.8-0.3v-2.1c-0.4,0.2-0.8,0.3-1.3,0.3C58.1,39.4,57.6,38.9,57.6,37.9z"/>
				<polygon id="Path_12_" class="st0" points="67.9,35.1 72.4,29.9 69.5,29.9 65.3,34.9 65.3,24.6 62.6,24.6 62.6,41.3 65.3,41.3 
					65.3,35.7 69.7,41.3 72.8,41.3 				"/>
			</g>
			<g id="Group_1_" transform="translate(75.000000, 6.000000)">
				<g id="Path_13_">
					<path class="st0" d="M3.6,35.9L3.6,35.9c-2.4,0-4.1-2.4-3.3-4.7L10.8,2.7c0.5-1.4,1.8-2.3,3.3-2.3l0,0c2.4,0,4.1,2.4,3.3,4.7
						L7,33.6C6.4,34.9,5.1,35.9,3.6,35.9z"/>
					<path class="st0" d="M17.8,35.9L17.8,35.9c-2.4,0-4.1-2.4-3.3-4.7l5.4-14.6c0.5-1.4,1.8-2.3,3.3-2.3l0,0c2.4,0,4.1,2.4,3.3,4.7
						l-5.4,14.6C20.7,34.9,19.3,35.9,17.8,35.9z"/>
				</g>
				<g id="Shape_4_" transform="translate(26.580538, 31.449208)">
					<path class="st1" d="M2,3.3H1.6V1.2h0.9c0.5,0,0.8,0.3,0.8,0.7c0,0.3-0.1,0.5-0.4,0.6l0.5,0.8H2.8L2.4,2.6H2.1L2,3.3L2,3.3z
						 M2,2.2h0.4c0.2,0,0.3-0.1,0.3-0.3S2.7,1.6,2.4,1.6H2V2.2L2,2.2z"/>
					<path class="st1" d="M2.3,4.4c-1.2,0-2.2-1-2.2-2.1s1-2.1,2.2-2.1s2.2,1,2.2,2.1C4.5,3.4,3.5,4.4,2.3,4.4z M2.3,0.6
						c-0.9,0-1.7,0.8-1.7,1.7s0.8,1.7,1.7,1.7s1.7-0.8,1.7-1.7S3.3,0.6,2.3,0.6z"/>
				</g>
			</g>
		</g>
	</g>
</g>
</svg>
