<?xml version="1.0" encoding="UTF-8"?>
<svg width="107px" height="42px" viewBox="0 0 107 42" version="1.1" xmlns="http://www.w3.org/2000/svg" xmlns:xlink="http://www.w3.org/1999/xlink">
    <!-- Generator: Sketch 53.2 (72643) - https://sketchapp.com -->
    <title>Logo_original</title>
    <desc>Created with Sketch.</desc>
    <g id="Page-1" stroke="none" stroke-width="1" fill="none" fill-rule="evenodd">
        <g id="Home" transform="translate(-1169.000000, -17.000000)">
            <g id="Logo_original" transform="translate(1169.000000, 17.000000)">
                <g id="Group" fill="#42526E">
                    <path d="M9.77757576,10.01875 C9.37939394,10.19375 8.80424242,10.36875 7.96363636,10.54375 L8.45030303,12.425 C9.60060606,12.1625 10.4854545,11.85625 11.0606061,11.59375 C11.6357576,11.33125 12.0339394,11.025 12.2109091,10.71875 C12.3878788,10.4125 12.4763636,10.10625 12.4763636,9.8 C12.4763636,9.49375 12.3878788,9.23125 12.2551515,8.96875 C12.1224242,8.70625 11.9454545,8.4875 11.7684848,8.3125 C11.5915152,8.09375 11.4145455,7.91875 11.2818182,7.7875 C11.1490909,7.6125 11.0606061,7.48125 11.0606061,7.35 C11.0606061,7.175 11.1933333,7 11.4587879,6.825 C11.7242424,6.60625 12.1666667,6.3875 12.7860606,6.125 L11.9454545,4.41875 C10.7951515,4.9 10.0430303,5.38125 9.60060606,5.81875 C9.15818182,6.3 8.9369697,6.7375 8.9369697,7.21875 C8.9369697,7.525 9.02545455,7.7875 9.15818182,8.00625 C9.29090909,8.225 9.46787879,8.44375 9.64484848,8.61875 C9.82181818,8.79375 9.99878788,8.96875 10.1315152,9.1 C10.2642424,9.23125 10.3527273,9.3625 10.3527273,9.5375 C10.3084848,9.7125 10.1315152,9.84375 9.77757576,10.01875 Z" id="Path"></path>
                    <path d="M21.3690909,17.15 C22.6521212,17.15 23.7139394,17.01875 24.6430303,16.75625 C25.5721212,16.49375 26.2357576,16.05625 26.7666667,15.44375 C27.2533333,14.7875 27.4745455,13.86875 27.4745455,12.6875 C27.4745455,12.11875 27.430303,11.50625 27.2975758,10.85 C27.1648485,10.19375 27.0321212,9.5375 26.8551515,8.925 C26.6781818,8.26875 26.5012121,7.74375 26.3242424,7.2625 L23.7139394,8.05 C23.8909091,8.575 24.1121212,9.14375 24.2890909,9.7125 C24.4660606,10.325 24.6430303,10.85 24.7315152,11.41875 C24.8642424,11.94375 24.9084848,12.425 24.9084848,12.81875 C24.9084848,13.34375 24.82,13.69375 24.6430303,13.95625 C24.4660606,14.21875 24.1121212,14.35 23.6254545,14.4375 C23.0945455,14.525 22.4309091,14.56875 21.590303,14.56875 C21.1036364,14.56875 20.6612121,14.48125 20.3515152,14.30625 C20.0418182,14.13125 19.7763636,13.825 19.5551515,13.3875 C19.3781818,12.95 19.2454545,12.29375 19.2012121,11.4625 L18.7145455,1.18125 L16.1042424,1.18125 L16.5909091,11.41875 C16.6351515,12.11875 16.5466667,12.6875 16.369697,13.16875 C16.1927273,13.60625 15.8830303,14 15.3963636,14.2625 C14.909697,14.525 14.2460606,14.7 13.3169697,14.7875 C12.4321212,14.875 11.2818182,14.91875 9.86606061,14.91875 C8.27333333,14.91875 6.99030303,14.83125 6.06121212,14.56875 C5.13212121,14.30625 4.46848485,14.04375 4.07030303,13.60625 C3.67212121,13.16875 3.49515152,12.64375 3.49515152,12.03125 C3.49515152,11.68125 3.53939394,11.24375 3.62787879,10.80625 C3.71636364,10.325 3.84909091,9.93125 3.93757576,9.5375 L1.68121212,8.96875 C1.50424242,9.5375 1.37151515,10.15 1.19454545,10.80625 C1.01757576,11.4625 0.929090909,12.11875 0.929090909,12.775 C0.929090909,14.2625 1.59272727,15.44375 2.92,16.275 C4.24727273,17.10625 6.37090909,17.54375 9.33515152,17.54375 C11.5030303,17.54375 13.3169697,17.45625 14.7769697,17.19375 C16.2369697,16.975 17.3430303,16.40625 18.1393939,15.53125 C18.6260606,16.625 19.6878788,17.15 21.3690909,17.15 L21.3690909,17.15 C21.3248485,17.15 21.3248485,17.15 21.3690909,17.15 L21.3690909,17.15 L21.3690909,17.15 Z" id="Path"></path>
                    <path d="M26.8993939,5.29375 C27.2533333,5.29375 27.6072727,5.1625 27.8727273,4.9 C28.1381818,4.6375 28.2709091,4.33125 28.2709091,3.9375 C28.2709091,3.5875 28.1381818,3.2375 27.8727273,2.975 C27.6072727,2.7125 27.2975758,2.5375 26.8993939,2.5375 C26.5012121,2.5375 26.1915152,2.66875 25.9260606,2.975 C25.6606061,3.2375 25.5278788,3.5875 25.5278788,3.9375 C25.5278788,4.2875 25.6606061,4.6375 25.9260606,4.9 C26.1915152,5.1625 26.5012121,5.29375 26.8993939,5.29375 Z" id="Path"></path>
                    <path d="M23.36,5.29375 C23.7139394,5.29375 24.0236364,5.1625 24.2890909,4.9 C24.5545455,4.6375 24.6872727,4.33125 24.6872727,3.9375 C24.6872727,3.54375 24.5545455,3.2375 24.2890909,2.975 C24.0236364,2.7125 23.7139394,2.58125 23.36,2.58125 C22.9618182,2.58125 22.6521212,2.7125 22.3866667,2.975 C22.1212121,3.2375 21.9884848,3.5875 21.9884848,3.9375 C21.9884848,4.2875 22.1212121,4.6375 22.3866667,4.9 C22.6521212,5.1625 23.0060606,5.29375 23.36,5.29375 Z" id="Path"></path>
                    <path d="M30.6157576,18.15625 C29.8193939,18.725 28.7575758,19.25 27.430303,19.6875 L28.3593939,22.05 C29.7309091,21.6125 30.9254545,21.04375 31.9872727,20.3 C33.0490909,19.55625 33.889697,18.68125 34.5090909,17.675 C35.1284848,16.66875 35.4381818,15.4875 35.4381818,14.175 C35.4381818,12.6875 34.9072727,10.98125 33.8454545,9.0125 L31.4121212,10.19375 C31.8987879,11.1125 32.2969697,11.9 32.5181818,12.55625 C32.7393939,13.2125 32.8721212,13.825 32.8721212,14.4375 C32.8721212,15.09375 32.6951515,15.70625 32.3412121,16.3625 C31.9872727,16.975 31.4121212,17.5875 30.6157576,18.15625 Z" id="Path"></path>
                    <path d="M49.9939394,5.29375 C50.3478788,5.29375 50.7018182,5.1625 50.9672727,4.9 C51.2327273,4.6375 51.3654545,4.33125 51.3654545,3.9375 C51.3654545,3.54375 51.2327273,3.2375 50.9672727,2.975 C50.7018182,2.7125 50.3921212,2.58125 49.9939394,2.58125 C49.5957576,2.58125 49.2860606,2.7125 49.0206061,2.975 C48.7551515,3.2375 48.6224242,3.5875 48.6224242,3.9375 C48.6224242,4.2875 48.7551515,4.6375 49.0206061,4.9 C49.2860606,5.1625 49.5957576,5.29375 49.9939394,5.29375 Z" id="Path"></path>
                    <path d="M53.8872727,10.85 C53.7545455,10.19375 53.6218182,9.5375 53.4448485,8.925 C53.2678788,8.26875 53.0909091,7.74375 52.9139394,7.2625 L50.3036364,8.05 C50.4806061,8.575 50.7018182,9.14375 50.8787879,9.7125 C51.0557576,10.325 51.2327273,10.85 51.3212121,11.41875 C51.4539394,11.94375 51.4981818,12.425 51.4981818,12.81875 C51.4981818,13.34375 51.409697,13.69375 51.2327273,13.95625 C51.0557576,14.21875 50.7018182,14.35 50.2151515,14.4375 C49.7284848,14.525 49.0648485,14.56875 48.18,14.56875 L46.3218182,14.56875 L46.3218182,14.48125 C46.3218182,13.3875 46.1448485,12.38125 45.7909091,11.50625 C45.4369697,10.63125 44.950303,9.975 44.3309091,9.49375 C43.7115152,9.0125 43.0036364,8.79375 42.2072727,8.79375 C41.5878788,8.79375 41.0569697,8.96875 40.5260606,9.23125 C39.9951515,9.5375 39.5527273,9.93125 39.1987879,10.45625 C38.8006061,10.98125 38.5351515,11.50625 38.3139394,12.1625 C38.0927273,12.775 38.0042424,13.43125 38.0042424,14.04375 C38.0042424,15.18125 38.4024242,15.96875 39.1545455,16.45 C39.9509091,16.93125 40.9242424,17.15 42.1630303,17.15 L43.1363636,17.15 C42.6939394,17.89375 41.9860606,18.4625 41.0127273,18.76875 C40.0836364,19.075 38.8890909,19.3375 37.5618182,19.5125 L38.0927273,22.09375 C40.1721212,21.91875 41.8533333,21.4375 43.2248485,20.60625 C44.5521212,19.775 45.4812121,18.6375 45.9678788,17.15 L47.9587879,17.15 C49.2418182,17.15 50.3036364,17.01875 51.2327273,16.75625 C52.1618182,16.49375 52.8254545,16.05625 53.3121212,15.44375 C53.7987879,14.7875 54.02,13.86875 54.02,12.6875 C54.0642424,12.11875 54.02,11.50625 53.8872727,10.85 Z M43.7115152,14.6125 C42.8266667,14.7 42.1187879,14.65625 41.6763636,14.56875 C41.2339394,14.48125 40.9242424,14.35 40.7915152,14.175 C40.6145455,14 40.570303,13.78125 40.570303,13.5625 C40.570303,13.25625 40.6145455,12.95 40.7472727,12.6 C40.88,12.25 41.0569697,11.9875 41.2781818,11.76875 C41.4993939,11.55 41.7648485,11.41875 42.0745455,11.41875 C42.5612121,11.41875 42.9593939,11.68125 43.2690909,12.25 C43.5787879,12.81875 43.7115152,13.5625 43.7115152,14.48125 L43.7115152,14.6125 L43.7115152,14.6125 Z" id="Shape" fill-rule="nonzero"></path>
                    <path d="M53.4890909,5.29375 C53.8430303,5.29375 54.1527273,5.1625 54.4624242,4.9 C54.7278788,4.6375 54.8606061,4.33125 54.8606061,3.9375 C54.8606061,3.5875 54.7278788,3.2375 54.4624242,2.975 C54.1969697,2.7125 53.8872727,2.5375 53.4890909,2.5375 C53.0909091,2.5375 52.7812121,2.66875 52.5157576,2.975 C52.250303,3.2375 52.1175758,3.5875 52.1175758,3.9375 C52.1175758,4.2875 52.250303,4.6375 52.5157576,4.9 C52.7812121,5.1625 53.1351515,5.29375 53.4890909,5.29375 Z" id="Path"></path>
                    <path d="M67.6909091,2.8875 C68.0890909,2.8875 68.3987879,2.75625 68.6642424,2.49375 C68.929697,2.23125 69.1066667,1.88125 69.1066667,1.53125 C69.1066667,1.1375 68.9739394,0.7875 68.6642424,0.525 C68.3987879,0.2625 68.0448485,0.0875 67.6909091,0.0875 C67.2927273,0.0875 66.9387879,0.21875 66.6733333,0.525 C66.4078788,0.7875 66.2309091,1.1375 66.2309091,1.53125 C66.2309091,1.925 66.3636364,2.23125 66.6733333,2.49375 C66.9830303,2.75625 67.2927273,2.8875 67.6909091,2.8875 Z" id="Path"></path>
                    <path d="M65.8327273,17.01875 C66.850303,16.93125 67.6909091,16.75625 68.3545455,16.5375 C69.0181818,16.31875 69.5933333,16.0125 70.08,15.61875 C70.6551515,15.18125 71.1418182,14.56875 71.4957576,13.78125 C71.849697,12.99375 71.9824242,12.075 71.9824242,11.025 C71.9824242,9.93125 71.849697,8.96875 71.54,8.05 C71.230303,7.13125 70.7878788,6.3875 70.2127273,5.8625 C69.5933333,5.29375 68.8412121,5.03125 67.9121212,5.03125 C67.2927273,5.03125 66.7175758,5.1625 66.1866667,5.46875 C65.6557576,5.775 65.2133333,6.16875 64.8593939,6.69375 C64.5054545,7.21875 64.1957576,7.74375 63.9745455,8.35625 C63.7533333,8.96875 63.6648485,9.58125 63.6648485,10.19375 C63.6648485,11.2875 63.9745455,12.075 64.6381818,12.55625 C65.3018182,13.0375 66.1866667,13.3 67.3369697,13.3 C68.0006061,13.3 68.5757576,13.2125 69.1509091,13.0375 C69.0624242,13.3 68.929697,13.51875 68.7527273,13.69375 C68.5757576,13.86875 68.3987879,14.04375 68.1333333,14.13125 C67.8678788,14.2625 67.5581818,14.35 67.1157576,14.4375 C66.6733333,14.525 66.0981818,14.56875 65.3460606,14.56875 C64.5939394,14.6125 63.6206061,14.6125 62.4260606,14.6125 L62.4260606,14.6125 L62.4260606,14.6125 C61.7181818,14.6125 61.1872727,14.56875 60.8333333,14.4375 C60.4793939,14.30625 60.2581818,14.0875 60.1254545,13.7375 C60.0369697,13.3875 59.9484848,12.8625 59.9042424,12.1625 L59.4175758,1.225 L56.8072727,1.225 L57.249697,13.3 C57.2939394,14.21875 57.4266667,14.9625 57.6921212,15.53125 C57.9575758,16.1 58.4442424,16.5375 59.1521212,16.8 C59.86,17.0625 60.8333333,17.19375 62.1606061,17.19375 C62.1606061,17.19375 62.1606061,17.19375 62.2048485,17.19375 L62.2048485,17.19375 C63.6206061,17.15 64.8593939,17.10625 65.8327273,17.01875 Z M67.8236364,10.7625 C67.2484848,10.7625 66.8060606,10.675 66.5406061,10.45625 C66.2751515,10.2375 66.1424242,9.975 66.1424242,9.58125 C66.1424242,9.05625 66.2751515,8.575 66.5848485,8.1375 C66.8945455,7.74375 67.2484848,7.525 67.6909091,7.525 C68.1775758,7.525 68.5757576,7.7875 68.8854545,8.3125 C69.1951515,8.8375 69.3278788,9.58125 69.3721212,10.45625 C68.8854545,10.675 68.3545455,10.7625 67.8236364,10.7625 Z" id="Shape" fill-rule="nonzero"></path>
                    <polygon id="Path" points="0.132727273 41.34375 2.87575758 41.34375 2.87575758 34.78125 8.31757576 34.78125 8.31757576 32.68125 2.87575758 32.68125 2.87575758 27.86875 9.82181818 27.86875 9.82181818 25.68125 0.132727273 25.68125"></polygon>
                    <path d="M16.3254545,29.6625 C13.7151515,29.6625 11.5915152,30.8 11.370303,33.46875 L13.9806061,33.46875 C14.0690909,32.33125 14.8212121,31.675 16.1927273,31.675 C17.7854545,31.675 18.3163636,32.4625 18.3163636,33.99375 L18.3163636,34.60625 L16.9006061,34.60625 C13.5824242,34.60625 10.9721212,35.56875 10.9721212,38.2375 C10.9721212,40.64375 12.7418182,41.65 14.8654545,41.65 C16.6351515,41.65 17.6969697,40.99375 18.4048485,40.03125 L18.4048485,41.43125 L21.0593939,41.43125 L21.0593939,33.81875 C20.9266667,30.7125 18.8915152,29.6625 16.3254545,29.6625 Z M18.2721212,37.31875 C18.2721212,38.80625 17.0333333,39.6375 15.3963636,39.6375 C14.0690909,39.6375 13.5381818,38.98125 13.5381818,38.01875 C13.5381818,36.61875 14.8654545,36.18125 16.9006061,36.18125 L18.2721212,36.18125 C18.2721212,36.18125 18.2721212,37.31875 18.2721212,37.31875 Z" id="Shape" fill-rule="nonzero"></path>
                    <path d="M27.1206061,37.8875 L27.1206061,31.85 L29.6424242,31.85 L29.6424242,29.88125 L27.1206061,29.88125 L27.1206061,27.34375 L24.4218182,27.34375 L24.4218182,29.88125 L22.8733333,29.88125 L22.8733333,31.85 L24.4218182,31.85 L24.4218182,38.15 C24.4218182,40.3375 25.6163636,41.5625 27.9169697,41.5625 C28.7575758,41.5625 29.2884848,41.3875 29.7309091,41.25625 L29.7309091,39.15625 C29.3327273,39.33125 28.9345455,39.41875 28.4036364,39.41875 C27.5630303,39.375 27.1206061,38.89375 27.1206061,37.8875 Z" id="Path"></path>
                    <path d="M37.2963636,29.6625 C33.889697,29.6625 31.3236364,32.06875 31.3236364,35.56875 L31.3236364,35.74375 C31.3236364,39.24375 33.889697,41.5625 37.2521212,41.5625 C40.6145455,41.5625 43.2248485,39.24375 43.2248485,35.65625 L43.2248485,35.48125 C43.2248485,31.98125 40.7030303,29.6625 37.2963636,29.6625 Z M40.4818182,35.7 C40.4818182,37.975 39.2430303,39.50625 37.2963636,39.50625 C35.3054545,39.50625 34.1109091,38.01875 34.1109091,35.7 L34.1109091,35.525 C34.1109091,33.1625 35.349697,31.71875 37.2963636,31.71875 C39.2430303,31.71875 40.4818182,33.1625 40.4818182,35.525 L40.4818182,35.7 Z" id="Shape" fill-rule="nonzero"></path>
                    <path d="M48.3127273,32.025 L48.3127273,29.88125 L45.6581818,29.88125 L45.6581818,41.34375 L48.3127273,41.34375 L48.3127273,35.39375 C48.3127273,32.94375 49.7284848,32.2 52.0733333,32.2 L52.0733333,29.70625 C50.1266667,29.75 49.0648485,30.58125 48.3127273,32.025 Z" id="Path"></path>
                    <path d="M57.6478788,37.8875 L57.6478788,31.85 L60.169697,31.85 L60.169697,29.88125 L57.6478788,29.88125 L57.6478788,27.34375 L54.9933333,27.34375 L54.9933333,29.88125 L53.4448485,29.88125 L53.4448485,31.85 L54.9933333,31.85 L54.9933333,38.15 C54.9933333,40.3375 56.1878788,41.5625 58.4884848,41.5625 C59.2848485,41.5625 59.9042424,41.3875 60.3024242,41.25625 L60.3024242,39.15625 C59.9484848,39.33125 59.5060606,39.41875 58.9751515,39.41875 C58.090303,39.375 57.6478788,38.89375 57.6478788,37.8875 Z" id="Path"></path>
                    <polygon id="Path" points="67.9121212 35.13125 72.3806061 29.88125 69.4606061 29.88125 65.3460606 34.9125 65.3460606 24.5875 62.6472727 24.5875 62.6472727 41.34375 65.3460606 41.34375 65.3460606 35.7 69.6818182 41.34375 72.7787879 41.34375"></polygon>
                </g>
                <g id="Group" transform="translate(75.000000, 6.000000)" fill="#1574FB">
                    <g id="Path">
                        <path d="M3.64919255,35.8786735 L3.64919255,35.8786735 C1.21639752,35.8786735 -0.495569358,33.4867619 0.315362319,31.2277343 L10.8124224,2.65767952 C11.3079917,1.2845451 12.6595445,0.354357269 14.1462526,0.354357269 L14.1462526,0.354357269 C16.5790476,0.354357269 18.2910145,2.74626883 17.4800828,5.00529642 L6.98302277,33.5753512 C6.44240166,34.9484856 5.13590062,35.8786735 3.64919255,35.8786735 Z"></path>
                        <path d="M17.8404969,35.8786735 L17.8404969,35.8786735 C15.4077019,35.8786735 13.695735,33.4867619 14.5066667,31.2277343 L19.8678261,16.6547916 C20.3633954,15.2816572 21.7149482,14.3514694 23.2016563,14.3514694 L23.2016563,14.3514694 C25.6344513,14.3514694 27.3464182,16.743381 26.5354865,19.0024085 L21.1743271,33.5753512 C20.6787578,34.9484856 19.327205,35.8786735 17.8404969,35.8786735 Z"></path>
                    </g>
                    <g transform="translate(26.580538, 31.449208)" fill-rule="nonzero" id="Shape">
                        <path d="M2.02732919,3.3220994 L1.57681159,3.3220994 L1.57681159,1.24025044 L2.47784679,1.24025044 C2.92836439,1.24025044 3.24372671,1.50601839 3.24372671,1.90467032 C3.24372671,2.17043827 3.15362319,2.39191156 2.83826087,2.52479554 L3.28877847,3.3220994 L2.79320911,3.3220994 L2.38774327,2.5690902 L2.07238095,2.5690902 L2.02732919,3.3220994 L2.02732919,3.3220994 Z M2.02732919,2.21473293 L2.43279503,2.21473293 C2.65805383,2.21473293 2.74815735,2.12614361 2.74815735,1.90467032 C2.74815735,1.68319703 2.65805383,1.59460771 2.43279503,1.59460771 L2.02732919,1.59460771 L2.02732919,2.21473293 L2.02732919,2.21473293 Z"></path>
                        <path d="M2.34269151,4.42946586 C1.126294,4.42946586 0.180207039,3.45498337 0.180207039,2.30332225 C0.180207039,1.15166112 1.17134576,0.177178634 2.34269151,0.177178634 C3.51403727,0.177178634 4.50517598,1.15166112 4.50517598,2.30332225 C4.50517598,3.41068871 3.51403727,4.42946586 2.34269151,4.42946586 Z M2.34269151,0.575830562 C1.39660455,0.575830562 0.630724638,1.32883976 0.630724638,2.25902759 C0.630724638,3.18921542 1.39660455,3.94222462 2.34269151,3.94222462 C3.28877847,3.94222462 4.05465839,3.18921542 4.05465839,2.25902759 C4.05465839,1.32883976 3.28877847,0.575830562 2.34269151,0.575830562 Z"></path>
                    </g>
                </g>
            </g>
        </g>
    </g>
</svg>